# xmcd
#
# Track frame offsets:
#	150
#	13365
#	26603
#	39483
#	51537
#	63608
#	75142
#	89093
#	100370
#	110798
#	123088
#	135207
#	145916
#	156890
#	166339
#	177149
#	189330
#	202105
#	212749
#	225242
#
# Disc length: 3130 seconds
#
# Revision: 1
# Processed by: cddbd v1.5.2PL0 Copyright (c) Steve Scherf et al.
# Submitted via: audiograbber 1.82.02
#
DISCID=130c3814
DTITLE=Diverse - 200 Great Train Songs 9
DYEAR=1900
DGENRE=Railroad Songs
TTITLE0=Hank Snow - The Mystery of old No 5
TTITLE1=Stanley Johnson - Big Black Train
TTITLE2=Chuck Berry - Down Bound Train
TTITLE3=The Chuck-A-Lucks - The Devils Train
TTITLE4=The Jades - Lost Train
TTITLE5=Roy Acuff - Fireball Mail
TTITLE6=Wayne Newman - Midnight Train
TTITLE7=Lonnie Donegan - Wreck of the old 97
TTITLE8=Zen Fuller - Memory Train
TTITLE9=Lonnie Glosson - Pan American Boogie
TTITLE10=Rod Morris - The Ghost of Casey Jones
TTITLE11=Sonny Stewart - The northern Line
TTITLE12=Tracy Pendarvis - South Bound Line
TTITLE13=Charles Dean - Train Whistle Boogie
TTITLE14=Don Lang - Six Point Five Special
TTITLE15=The York Brothers - Gravy Train
TTITLE16=Reverend Ballenger - This Train
TTITLE17=Bus Moten - On the Gravy Train
TTITLE18=Cecil Foutch - Big Wheel
TTITLE19=Jay McNeely - Night Ride
EXTD=Total Time 52:08
EXTT0=
EXTT1=
EXTT2=
EXTT3=
EXTT4=
EXTT5=
EXTT6=
EXTT7=
EXTT8=
EXTT9=
EXTT10=
EXTT11=
EXTT12=
EXTT13=
EXTT14=
EXTT15=
EXTT16=
EXTT17=
EXTT18=
EXTT19=
PLAYORDER=
